HIERARCHY
ROOT Hips
{
	OFFSET 0.053599 88.859886 3.107447
	CHANNELS 6 Xposition Yposition Zposition Zrotation Yrotation Xrotation 
	JOINT Spine
	{
		OFFSET -0.000000 8.814246 -2.080107
		CHANNELS 3 Zrotation Yrotation Xrotation
		JOINT Spine1
		{
			OFFSET 0.000000 8.844141 0.000000
			CHANNELS 3 Zrotation Yrotation Xrotation
			JOINT Spine2
			{
				OFFSET -0.000000 11.682268 0.000000
				CHANNELS 3 Zrotation Yrotation Xrotation
				JOINT Spine3
				{
					OFFSET 0.000000 11.746700 0.000000
					CHANNELS 3 Zrotation Yrotation Xrotation
					JOINT Neck
					{
						OFFSET -0.000000 17.658264 -0.000000
						CHANNELS 3 Zrotation Yrotation Xrotation
						JOINT Neck1
						{
							OFFSET -0.000000 5.101515 -0.000000
							CHANNELS 3 Zrotation Yrotation Xrotation
							JOINT Head
							{
								OFFSET 0.000000 5.101515 0.000000
								CHANNELS 3 Zrotation Yrotation Xrotation
								JOINT HeadEnd
								{
									OFFSET 0.000000 11.655085 0.000000
									CHANNELS 3 Zrotation Yrotation Xrotation
									End Site
									{
										OFFSET 0.000000 0.000000 0.000000
									}
								}
							}
						}
					}
					JOINT RightShoulder
					{
						OFFSET -2.625389 11.175210 0.000000
						CHANNELS 3 Zrotation Yrotation Xrotation
						JOINT RightArm
						{
							OFFSET -0.000000 10.434715 -0.000000
							CHANNELS 3 Zrotation Yrotation Xrotation
							JOINT RightForeArm
							{
								OFFSET -0.000000 29.628420 0.000000
								CHANNELS 3 Zrotation Yrotation Xrotation
								JOINT RightHand
								{
									OFFSET -0.000000 22.857611 0.000000
									CHANNELS 3 Zrotation Yrotation Xrotation
									JOINT RightHandThumb1
									{
										OFFSET -2.867323 3.959563 2.944291
										CHANNELS 3 Zrotation Yrotation Xrotation
										JOINT RightHandThumb2
										{
											OFFSET 0.000000 3.350399 0.000000
											CHANNELS 3 Zrotation Yrotation Xrotation
											JOINT RightHandThumb3
											{
												OFFSET 0.000000 3.756509 -0.000000
												CHANNELS 3 Zrotation Yrotation Xrotation
												JOINT RightHandThumb4
												{
													OFFSET 0.000000 3.147345 0.000000
													CHANNELS 3 Zrotation Yrotation Xrotation
													End Site
													{
														OFFSET 0.000000 0.000000 0.000000
													}
												}
											}
										}
									}
									JOINT RightHandIndex1
									{
										OFFSET -0.086752 10.030893 2.345280
										CHANNELS 3 Zrotation Yrotation Xrotation
										JOINT RightHandIndex2
										{
											OFFSET -0.000000 4.061090 0.000000
											CHANNELS 3 Zrotation Yrotation Xrotation
											JOINT RightHandIndex3
											{
												OFFSET -0.000000 3.248873 0.000000
												CHANNELS 3 Zrotation Yrotation Xrotation
												JOINT RightHandIndex4
												{
													OFFSET 0.000000 2.639709 -0.000000
													CHANNELS 3 Zrotation Yrotation Xrotation
													End Site
													{
														OFFSET 0.000000 0.000000 0.000000
													}
												}
											}
										}
									}
									JOINT RightHandMiddle1
									{
										OFFSET 0.104102 9.502952 0.006768
										CHANNELS 3 Zrotation Yrotation Xrotation
										JOINT RightHandMiddle2
										{
											OFFSET 0.000000 4.568727 0.000000
											CHANNELS 3 Zrotation Yrotation Xrotation
											JOINT RightHandMiddle3
											{
												OFFSET 0.000000 3.654981 -0.000000
												CHANNELS 3 Zrotation Yrotation Xrotation
												JOINT RightHandMiddle4
												{
													OFFSET -0.000000 2.741236 -0.000000
													CHANNELS 3 Zrotation Yrotation Xrotation
													End Site
													{
														OFFSET 0.000000 0.000000 0.000000
													}
												}
											}
										}
									}
									JOINT RightHandRing1
									{
										OFFSET 0.086752 8.921708 -2.267442
										CHANNELS 3 Zrotation Yrotation Xrotation
										JOINT RightHandRing2
										{
											OFFSET -0.000000 4.061090 0.000000
											CHANNELS 3 Zrotation Yrotation Xrotation
											JOINT RightHandRing3
											{
												OFFSET 0.000000 3.654981 -0.000000
												CHANNELS 3 Zrotation Yrotation Xrotation
												JOINT RightHandRing4
												{
													OFFSET 0.000000 2.741236 -0.000000
													CHANNELS 3 Zrotation Yrotation Xrotation
													End Site
													{
														OFFSET 0.000000 0.000000 0.000000
													}
												}
											}
										}
									}
									JOINT RightHandPinky1
									{
										OFFSET -0.173504 7.976997 -4.467199
										CHANNELS 3 Zrotation Yrotation Xrotation
										JOINT RightHandPinky2
										{
											OFFSET 0.000000 3.350399 -0.000000
											CHANNELS 3 Zrotation Yrotation Xrotation
											JOINT RightHandPinky3
											{
												OFFSET -0.000000 2.842763 0.000000
												CHANNELS 3 Zrotation Yrotation Xrotation
												JOINT RightHandPinky4
												{
													OFFSET -0.000000 2.639709 0.000000
													CHANNELS 3 Zrotation Yrotation Xrotation
													End Site
													{
														OFFSET 0.000000 0.000000 0.000000
													}
												}
											}
										}
									}
									JOINT RightForeArmEnd
									{
										OFFSET 0.000000 0.000000 0.000000
										CHANNELS 3 Zrotation Yrotation Xrotation
										End Site
										{
											OFFSET 0.000000 0.000000 0.000000
										}
									}
								}
								JOINT RightArmEnd
								{
									OFFSET 0.000000 0.000000 0.000000
									CHANNELS 3 Zrotation Yrotation Xrotation
									End Site
									{
										OFFSET 0.000000 0.000000 0.000000
									}
								}
							}
						}
					}
					JOINT LeftShoulder
					{
						OFFSET 2.625389 11.175210 0.000000
						CHANNELS 3 Zrotation Yrotation Xrotation
						JOINT LeftArm
						{
							OFFSET 0.000000 10.813635 -0.000000
							CHANNELS 3 Zrotation Yrotation Xrotation
							JOINT LeftForeArm
							{
								OFFSET 0.000000 28.724781 0.000000
								CHANNELS 3 Zrotation Yrotation Xrotation
								JOINT LeftHand
								{
									OFFSET 0.644384 25.716167 -0.328871
									CHANNELS 3 Zrotation Yrotation Xrotation
									JOINT LeftHandThumb1
									{
										OFFSET 2.867323 3.959563 2.944291
										CHANNELS 3 Zrotation Yrotation Xrotation
										JOINT LeftHandThumb2
										{
											OFFSET 0.000000 3.350399 0.000000
											CHANNELS 3 Zrotation Yrotation Xrotation
											JOINT LeftHandThumb3
											{
												OFFSET -0.000000 3.756509 0.000000
												CHANNELS 3 Zrotation Yrotation Xrotation
												JOINT LeftHandThumb4
												{
													OFFSET -0.000000 3.100000 0.000000
													CHANNELS 3 Zrotation Yrotation Xrotation
													End Site
													{
														OFFSET 0.000000 0.000000 0.000000
													}
												}
											}
										}
									}
									JOINT LeftHandIndex1
									{
										OFFSET 0.086752 10.030893 2.345280
										CHANNELS 3 Zrotation Yrotation Xrotation
										JOINT LeftHandIndex2
										{
											OFFSET -0.000000 4.061090 -0.000000
											CHANNELS 3 Zrotation Yrotation Xrotation
											JOINT LeftHandIndex3
											{
												OFFSET 0.000000 3.248873 -0.000000
												CHANNELS 3 Zrotation Yrotation Xrotation
												JOINT LeftHandIndex4
												{
													OFFSET 0.000000 2.639709 -0.000000
													CHANNELS 3 Zrotation Yrotation Xrotation
													End Site
													{
														OFFSET 0.000000 0.000000 0.000000
													}
												}
											}
										}
									}
									JOINT LeftHandMiddle1
									{
										OFFSET -0.104102 9.502952 0.006768
										CHANNELS 3 Zrotation Yrotation Xrotation
										JOINT LeftHandMiddle2
										{
											OFFSET -0.000000 4.568727 -0.000000
											CHANNELS 3 Zrotation Yrotation Xrotation
											JOINT LeftHandMiddle3
											{
												OFFSET 0.000000 3.654981 0.000000
												CHANNELS 3 Zrotation Yrotation Xrotation
												JOINT LeftHandMiddle4
												{
													OFFSET 0.000000 2.741236 -0.000000
													CHANNELS 3 Zrotation Yrotation Xrotation
													End Site
													{
														OFFSET 0.000000 0.000000 0.000000
													}
												}
											}
										}
									}
									JOINT LeftHandRing1
									{
										OFFSET -0.086752 8.921708 -2.267442
										CHANNELS 3 Zrotation Yrotation Xrotation
										JOINT LeftHandRing2
										{
											OFFSET 0.000000 4.061090 0.000000
											CHANNELS 3 Zrotation Yrotation Xrotation
											JOINT LeftHandRing3
											{
												OFFSET 0.000000 3.654981 0.000000
												CHANNELS 3 Zrotation Yrotation Xrotation
												JOINT LeftHandRing4
												{
													OFFSET 0.000000 2.741236 0.000000
													CHANNELS 3 Zrotation Yrotation Xrotation
													End Site
													{
														OFFSET 0.000000 0.000000 0.000000
													}
												}
											}
										}
									}
									JOINT LeftHandPinky1
									{
										OFFSET 0.173504 7.976997 -4.467199
										CHANNELS 3 Zrotation Yrotation Xrotation
										JOINT LeftHandPinky2
										{
											OFFSET -0.000000 3.350399 -0.000000
											CHANNELS 3 Zrotation Yrotation Xrotation
											JOINT LeftHandPinky3
											{
												OFFSET 0.000000 2.842763 0.000000
												CHANNELS 3 Zrotation Yrotation Xrotation
												JOINT LeftHandPinky4
												{
													OFFSET -0.000000 2.639709 -0.000000
													CHANNELS 3 Zrotation Yrotation Xrotation
													End Site
													{
														OFFSET 0.000000 0.000000 0.000000
													}
												}
											}
										}
									}
									JOINT LeftForeArmEnd
									{
										OFFSET 0.000000 0.000000 0.000000
										CHANNELS 3 Zrotation Yrotation Xrotation
										End Site
										{
											OFFSET 0.000000 0.000000 0.000000
										}
									}
								}
								JOINT LeftArmEnd
								{
									OFFSET 0.000000 0.000000 0.000000
									CHANNELS 3 Zrotation Yrotation Xrotation
									End Site
									{
										OFFSET 0.000000 0.000000 0.000000
									}
								}
							}
						}
					}
				}
			}
		}
	}
	JOINT RightUpLeg
	{
		OFFSET -11.289943 0.000000 0.000000
		CHANNELS 3 Zrotation Yrotation Xrotation
		JOINT RightLeg
		{
			OFFSET 0.000000 -38.200325 0.000000
			CHANNELS 3 Zrotation Yrotation Xrotation
			JOINT RightFoot
			{
				OFFSET -0.000000 -39.900856 -0.000000
				CHANNELS 3 Zrotation Yrotation Xrotation
				JOINT RightToeBase
				{
					OFFSET 0.000000 0.000000 15.261641
					CHANNELS 3 Zrotation Yrotation Xrotation
					JOINT RightToeBaseEnd
					{
						OFFSET 0.000000 0.000000 7.370709
						CHANNELS 3 Zrotation Yrotation Xrotation
						End Site
						{
							OFFSET 0.000000 0.000000 0.000000
						}
					}
				}
				JOINT RightLegEnd
				{
					OFFSET 0.000000 0.000000 0.000000
					CHANNELS 3 Zrotation Yrotation Xrotation
					End Site
					{
						OFFSET 0.000000 0.000000 0.000000
					}
				}
			}
			JOINT RightUpLegEnd
			{
				OFFSET 0.000000 0.000000 0.000000
				CHANNELS 3 Zrotation Yrotation Xrotation
				End Site
				{
					OFFSET 0.000000 0.000000 0.000000
				}
			}
		}
	}
	JOINT LeftUpLeg
	{
		OFFSET 11.315661 -0.000000 0.000000
		CHANNELS 3 Zrotation Yrotation Xrotation
		JOINT LeftLeg
		{
			OFFSET -0.000000 -38.200325 -0.000000
			CHANNELS 3 Zrotation Yrotation Xrotation
			JOINT LeftFoot
			{
				OFFSET 0.000000 -39.900856 -0.000000
				CHANNELS 3 Zrotation Yrotation Xrotation
				JOINT LeftToeBase
				{
					OFFSET -0.000000 -0.000000 15.261641
					CHANNELS 3 Zrotation Yrotation Xrotation
					JOINT LeftToeBaseEnd
					{
						OFFSET 0.000000 -0.000000 7.539996
						CHANNELS 3 Zrotation Yrotation Xrotation
						End Site
						{
							OFFSET 0.000000 0.000000 0.000000
						}
					}
				}
				JOINT LeftLegEnd
				{
					OFFSET 0.000000 0.000000 0.000000
					CHANNELS 3 Zrotation Yrotation Xrotation
					End Site
					{
						OFFSET 0.000000 0.000000 0.000000
					}
				}
			}
			JOINT LeftUpLegEnd
			{
				OFFSET 0.000000 0.000000 0.000000
				CHANNELS 3 Zrotation Yrotation Xrotation
				End Site
				{
					OFFSET 0.000000 0.000000 0.000000
				}
			}
		}
	}
}
MOTION
Frames: 5
Frame Time: 0.016667
0.447530 88.944519 2.968632 -0.053988 -1.680644 -9.330648 0.793422 0.087134 6.410193 -1.027986 0.203313 2.771024 0.374582 -0.794795 3.658381 -1.284524 0.168718 4.537178 1.167502 0.386361 4.477615 -0.060561 0.386946 -3.580406 -0.322420 -0.681195 -20.557589 0.000000 0.000000 0.000000 91.536293 -0.281361 8.564333 67.458420 -21.473969 -1.528267 -0.855885 17.222023 62.774338 -8.059814 0.655626 -2.866040 17.023302 31.055981 64.793869 -5.295053 -6.897259 -12.111889 -3.873800 -4.497143 -8.290125 0.000000 0.000000 0.000000 -9.202587 -7.351786 10.934808 1.485425 0.500584 0.502162 1.192091 0.064857 0.547689 0.000000 0.000000 0.000000 -8.861300 -1.934520 6.167840 0.402798 0.501733 0.189705 0.939006 0.001008 0.161559 0.000000 0.000000 0.000000 -8.633262 5.981528 0.205703 0.422458 -0.994518 -0.397171 0.574836 -0.014722 -0.272909 0.000000 0.000000 0.000000 -9.706870 14.324070 -5.872124 0.288583 -1.894577 -1.197682 0.257147 0.069070 -0.993616 0.000000 0.000000 0.000000 0.000000 0.000000 0.000000 0.000000 0.000000 0.000000 -87.886024 0.212238 3.953732 -73.852264 10.430524 -10.902354 -0.242146 -13.821574 73.711273 2.579530 -6.849612 -5.694498 -16.388321 -31.308384 65.526779 4.513808 5.454859 -9.861477 3.224226 3.713384 -6.948575 0.000000 0.000000 0.000000 7.974887 -10.444995 16.435192 -1.068582 0.545151 -0.271695 -1.120396 0.067417 -0.341298 0.000000 0.000000 0.000000 8.229718 -5.048068 10.256682 -1.110619 0.510350 -0.161648 -1.326261 0.013621 -0.131854 0.000000 0.000000 0.000000 5.627682 3.413749 2.662218 -2.230757 -1.015395 0.359827 -2.337128 -0.027213 0.272139 0.000000 0.000000 0.000000 1.474902 12.780457 -4.935456 -3.782424 -1.953290 1.456336 -3.477674 0.078225 1.298607 0.000000 0.000000 0.000000 0.000000 0.000000 0.000000 0.000000 0.000000 0.000000 -0.835789 -8.252973 13.289878 -0.052817 -0.626909 4.785167 -2.367742 -7.230478 18.285757 -0.819158 0.780884 -18.987764 0.000000 0.000000 0.000000 0.000000 0.000000 0.000000 0.000000 0.000000 0.000000 -1.781214 -5.697040 8.011557 0.076165 0.360159 9.998115 4.077024 -0.533082 17.266731 0.315097 -0.425107 -21.200788 0.000000 0.000000 0.000000 0.000000 0.000000 0.000000 0.000000 0.000000 0.000000 
0.443785 88.942093 2.952084 -0.041614 -1.686643 -9.414978 0.767463 0.092233 6.427763 -1.028883 0.209275 2.842654 0.375571 -0.785542 3.710788 -1.316135 0.174394 4.597224 1.125890 0.273290 4.643324 -0.095652 0.234165 -3.527845 -0.267557 -0.676234 -20.685007 0.000000 0.000000 0.000000 91.595627 -0.300705 8.478362 67.561249 -21.011143 -1.683139 -0.901837 17.168669 64.569130 -9.712062 -0.730302 -2.452694 16.746349 31.162756 65.101334 -4.930331 -6.360300 -11.217399 -3.603436 -4.139468 -7.662582 0.000000 0.000000 0.000000 -11.525779 -6.950153 11.543937 1.303134 0.531193 0.355657 0.997043 0.094263 0.414683 0.000000 0.000000 0.000000 -11.167918 -1.535176 6.495430 0.248444 0.515127 0.130628 0.775270 0.011326 0.112566 0.000000 0.000000 0.000000 -11.166078 6.405929 0.139209 0.182598 -1.013839 -0.323640 0.334381 -0.029731 -0.216889 0.000000 0.000000 0.000000 -12.314458 14.697632 -6.247693 -0.030584 -1.943457 -1.009124 -0.038707 0.027065 -0.839509 0.000000 0.000000 0.000000 0.000000 0.000000 0.000000 0.000000 0.000000 0.000000 -87.961960 0.231313 3.824806 -73.759796 10.368164 -10.940432 -0.156114 -13.555802 75.524208 3.723885 -5.624400 -4.822122 -16.113398 -31.411694 65.827019 4.177347 4.907308 -8.978819 2.961675 3.344846 -6.322574 0.000000 0.000000 0.000000 9.830356 -10.769520 17.507381 -0.837612 0.571669 -0.168158 -0.884012 0.093226 -0.248379 0.000000 0.000000 0.000000 10.053769 -5.375984 11.047001 -0.869279 0.521955 -0.119373 -1.104341 0.024002 -0.097665 0.000000 0.000000 0.000000 7.557991 3.079457 3.078190 -1.902262 -1.032298 0.300866 -2.005925 -0.040388 0.226875 0.000000 0.000000 0.000000 3.300216 12.477804 -4.867893 -3.388365 -1.998455 1.274644 -3.085473 0.038917 1.146304 0.000000 0.000000 0.000000 0.000000 0.000000 0.000000 0.000000 0.000000 0.000000 -0.854920 -8.236084 13.411352 -0.053226 -0.631044 4.716130 -2.373333 -7.131504 18.249594 -0.820666 0.785874 -18.957483 0.000000 0.000000 0.000000 0.000000 0.000000 0.000000 0.000000 0.000000 0.000000 -1.790329 -5.694136 8.090764 0.076840 0.361963 10.057308 4.056465 -0.541845 17.216625 0.308048 -0.428900 -21.195961 0.000000 0.000000 0.000000 0.000000 0.000000 0.000000 0.000000 0.000000 0.000000 
0.435388 88.938454 2.935491 -0.033927 -1.698576 -9.501184 0.740162 0.099233 6.452708 -1.028863 0.218192 2.891366 0.376506 -0.784867 3.780958 -1.344338 0.176915 4.643217 1.076885 0.193700 4.788838 -0.124695 0.111550 -3.477390 -0.219145 -0.671413 -20.778170 0.000000 0.000000 0.000000 91.660347 -0.324251 8.411370 67.635246 -20.614191 -1.794548 -0.928189 17.157143 66.102989 -11.240250 -1.958989 -2.095345 16.515423 31.252914 65.359398 -4.623820 -5.912686 -10.465752 -3.376815 -3.840418 -7.136386 0.000000 0.000000 0.000000 -13.500226 -6.602275 11.998241 1.171729 0.558802 0.227740 0.852581 0.120977 0.298328 0.000000 0.000000 0.000000 -13.127131 -1.193737 6.726824 0.143126 0.527465 0.079248 0.662952 0.020679 0.070374 0.000000 0.000000 0.000000 -13.293317 6.753981 0.061489 0.009431 -1.030647 -0.259684 0.159992 -0.043132 -0.168198 0.000000 0.000000 0.000000 -14.474721 14.989691 -6.575269 -0.259185 -1.987659 -0.843440 -0.246308 -0.011258 -0.705153 0.000000 0.000000 0.000000 0.000000 0.000000 0.000000 0.000000 0.000000 0.000000 -88.058784 0.245131 3.715017 -73.602928 10.423203 -10.918528 -0.078488 -13.278319 77.168846 4.759089 -4.584756 -3.924788 -15.869287 -31.505373 66.094788 3.873711 4.418534 -8.190920 2.725462 3.016338 -5.762561 0.000000 0.000000 0.000000 11.504634 -11.062010 18.386122 -0.700713 0.595039 -0.076579 -0.737534 0.116542 -0.165866 0.000000 0.000000 0.000000 11.691170 -5.671470 11.696509 -0.725017 0.532373 -0.082121 -0.980031 0.033328 -0.067470 0.000000 0.000000 0.000000 9.285153 2.781200 3.417502 -1.693067 -1.047752 0.248074 -1.792448 -0.052426 0.186948 0.000000 0.000000 0.000000 4.925640 12.214213 -4.828511 -3.117945 -2.040463 1.109687 -2.815165 0.001944 1.010095 0.000000 0.000000 0.000000 0.000000 0.000000 0.000000 0.000000 0.000000 0.000000 -0.863480 -8.219614 13.541512 -0.053693 -0.635891 4.651849 -2.385986 -7.040892 18.217945 -0.820895 0.791078 -18.929392 0.000000 0.000000 0.000000 0.000000 0.000000 0.000000 0.000000 0.000000 0.000000 -1.793881 -5.690407 8.197658 0.077087 0.363475 10.089731 4.032074 -0.547257 17.167933 0.302970 -0.432757 -21.181725 0.000000 0.000000 0.000000 0.000000 0.000000 0.000000 0.000000 0.000000 0.000000 
0.423823 88.933685 2.920209 -0.030415 -1.713099 -9.585482 0.714315 0.108057 6.481260 -1.031890 0.230482 2.912955 0.378786 -0.792531 3.861192 -1.370966 0.177540 4.677138 1.025594 0.156168 4.906341 -0.143032 0.031742 -3.431669 -0.181286 -0.667660 -20.836264 0.000000 0.000000 0.000000 91.715210 -0.346892 8.366748 67.701492 -20.284031 -1.865204 -0.937375 17.182087 67.346069 -12.597678 -2.973781 -1.841714 16.334864 31.324564 65.562775 -4.381108 -5.563759 -9.872786 -3.198149 -3.605713 -6.721387 0.000000 0.000000 0.000000 -15.110058 -6.315746 12.329045 1.073424 0.581901 0.124551 0.742742 0.143611 0.204212 0.000000 0.000000 0.000000 -14.716972 -0.915801 6.883447 0.064535 0.538179 0.037925 0.581891 0.028660 0.036874 0.000000 0.000000 0.000000 -14.977694 7.024279 -0.023858 -0.120144 -1.044196 -0.208146 0.029155 -0.054307 -0.128878 0.000000 0.000000 0.000000 -16.148792 15.206573 -6.867164 -0.419097 -2.024855 -0.706465 -0.388864 -0.044048 -0.594842 0.000000 0.000000 0.000000 0.000000 0.000000 0.000000 0.000000 0.000000 0.000000 -88.160019 0.252507 3.628583 -73.406456 10.580400 -10.838634 -0.011857 -13.008727 78.597191 5.633701 -3.817688 -3.087513 -15.660913 -31.586126 66.323166 3.612202 4.000243 -7.518657 2.522506 2.736267 -5.283554 0.000000 0.000000 0.000000 12.966257 -11.315862 19.067139 -0.634941 0.614521 0.001193 -0.658864 0.136720 -0.095515 0.000000 0.000000 0.000000 13.116003 -5.927463 12.195282 -0.650929 0.541283 -0.050560 -0.925320 0.041441 -0.041702 0.000000 0.000000 0.000000 10.773565 2.523077 3.661650 -1.572540 -1.061290 0.202600 -1.667903 -0.063009 0.153090 0.000000 0.000000 0.000000 6.312185 11.989438 -4.840769 -2.943928 -2.077973 0.965412 -2.639256 -0.031536 0.892747 0.000000 0.000000 0.000000 0.000000 0.000000 0.000000 0.000000 0.000000 0.000000 -0.861458 -8.205194 13.674984 -0.054209 -0.641123 4.590002 -2.405957 -6.970420 18.193138 -0.820716 0.796276 -18.904444 0.000000 0.000000 0.000000 0.000000 0.000000 0.000000 0.000000 0.000000 0.000000 -1.791510 -5.691164 8.329486 0.077070 0.364602 10.090976 4.005661 -0.549395 17.123930 0.299549 -0.435807 -21.158993 0.000000 0.000000 0.000000 0.000000 0.000000 0.000000 0.000000 0.000000 0.000000 
0.411127 88.927330 2.906937 -0.030588 -1.726775 -9.667555 0.691845 0.117689 6.511595 -1.037855 0.245221 2.911722 0.380390 -0.803808 3.945865 -1.397296 0.178113 4.704262 0.978208 0.153393 4.998916 -0.149016 -0.006261 -3.387988 -0.155396 -0.666313 -20.866077 0.000000 0.000000 0.000000 91.751762 -0.364193 8.344152 67.798561 -20.005375 -1.901291 -0.934890 17.222683 68.302025 -13.835760 -3.727433 -1.651920 16.197834 31.379734 65.717888 -4.194879 -5.300367 -9.420210 -3.061225 -3.427048 -6.404063 0.000000 0.000000 0.000000 -16.407137 -6.082356 12.581024 1.002944 0.598712 0.050462 0.663300 0.160415 0.136478 0.000000 0.000000 0.000000 -15.988944 -0.692844 7.000413 0.007162 0.546450 0.008412 0.527548 0.034719 0.013388 0.000000 0.000000 0.000000 -16.273632 7.229376 -0.095689 -0.212891 -1.053582 -0.171055 -0.065346 -0.062527 -0.100461 0.000000 0.000000 0.000000 -17.394730 15.363065 -7.114199 -0.523453 -2.051843 -0.603738 -0.480036 -0.068706 -0.513205 0.000000 0.000000 0.000000 0.000000 0.000000 0.000000 0.000000 0.000000 0.000000 -88.255630 0.254355 3.569675 -73.200043 10.825709 -10.705761 0.045537 -12.756865 79.782494 6.391163 -3.362754 -2.377851 -15.493079 -31.650562 66.505928 3.403157 3.662872 -6.980986 2.359916 2.511769 -4.899161 0.000000 0.000000 0.000000 14.166751 -11.519571 19.564749 -0.604715 0.629918 0.064317 -0.612980 0.153514 -0.038101 0.000000 0.000000 0.000000 14.281298 -6.133501 12.551805 -0.610999 0.548563 -0.024964 -0.901795 0.048348 -0.020557 0.000000 0.000000 0.000000 11.966709 2.312577 3.814523 -1.502705 -1.072615 0.165419 -1.595934 -0.071924 0.125691 0.000000 0.000000 0.000000 7.401609 11.807755 -4.903681 -2.833277 -2.109701 0.844862 -2.525108 -0.060246 0.795947 0.000000 0.000000 0.000000 0.000000 0.000000 0.000000 0.000000 0.000000 0.000000 -0.852717 -8.199646 13.803193 -0.054910 -0.646457 4.536996 -2.430171 -6.926842 18.173599 -0.820773 0.801315 -18.884211 0.000000 0.000000 0.000000 0.000000 0.000000 0.000000 0.000000 0.000000 0.000000 -1.783834 -5.699580 8.477527 0.076834 0.365227 10.068008 3.978570 -0.546798 17.086769 0.297325 -0.437481 -21.131992 0.000000 0.000000 0.000000 0.000000 0.000000 0.000000 0.000000 0.000000 0.000000 
